<?xml version="1.0" encoding="UTF-8"?>
<svg width="11px" height="11px" viewBox="0 0 11 11" version="1.1" xmlns="http://www.w3.org/2000/svg" xmlns:xlink="http://www.w3.org/1999/xlink">
    <!-- Generator: Sketch 45.2 (43514) - http://www.bohemiancoding.com/sketch -->
    <title>cancel</title>
    <desc>Created with Sketch.</desc>
    <defs>
        <path d="M215.5,270.362806 L212.372715,267.235521 C212.058688,266.921493 211.549548,266.921493 211.235521,267.235521 C210.921493,267.549548 210.921493,268.058688 211.235521,268.372715 L214.362806,271.5 L211.235521,274.627285 C210.921493,274.941312 210.921493,275.450452 211.235521,275.764479 C211.549548,276.078507 212.058688,276.078507 212.372715,275.764479 L215.5,272.637194 L218.627285,275.764479 C218.941312,276.078507 219.450452,276.078507 219.764479,275.764479 C220.078507,275.450452 220.078507,274.941312 219.764479,274.627285 L216.637194,271.5 L219.764479,268.372715 C220.078507,268.058688 220.078507,267.549548 219.764479,267.235521 C219.450452,266.921493 218.941312,266.921493 218.627285,267.235521 L215.5,270.362806 Z" id="path-1"></path>
    </defs>
    <g id="Page-1" stroke="none" stroke-width="1" fill="none" fill-rule="evenodd">
        <g id="cobi_js_simulator" transform="translate(-210.000000, -266.000000)">
            <g id="cancel">
                <use fill="#585858" fill-rule="evenodd" xlink:href="#path-1"></use>
                <path stroke="#585858" stroke-width="0.5" d="M215.5,270.009252 L218.450508,267.058744 C218.862167,266.647085 219.529597,266.647085 219.941256,267.058744 C220.352915,267.470403 220.352915,268.137833 219.941256,268.549492 L216.990748,271.5 L219.941256,274.450508 C220.352915,274.862167 220.352915,275.529597 219.941256,275.941256 C219.529597,276.352915 218.862167,276.352915 218.450508,275.941256 L215.5,272.990748 L212.549492,275.941256 C212.137833,276.352915 211.470403,276.352915 211.058744,275.941256 C210.647085,275.529597 210.647085,274.862167 211.058744,274.450508 L214.009252,271.5 L211.058744,268.549492 C210.647085,268.137833 210.647085,267.470403 211.058744,267.058744 C211.470403,266.647085 212.137833,266.647085 212.549492,267.058744 L215.5,270.009252 Z"></path>
            </g>
        </g>
    </g>
</svg>