<?xml version="1.0" encoding="UTF-8"?>
<svg width="16px" height="70px" viewBox="0 0 16 70" version="1.1" xmlns="http://www.w3.org/2000/svg" xmlns:xlink="http://www.w3.org/1999/xlink">
    <!-- Generator: Sketch 45.2 (43514) - http://www.bohemiancoding.com/sketch -->
    <title>navigation_icon</title>
    <desc>Created with Sketch.</desc>
    <defs></defs>
    <g id="Page-1" stroke="none" stroke-width="1" fill="none" fill-rule="evenodd">
        <g id="cobi_js_simulator" transform="translate(-35.000000, -239.000000)">
            <g id="navigation_icon" transform="translate(32.000000, 239.000000)">
                <path d="M11,25 C12.1045695,25 13,24.1045695 13,23 C13,21.8954305 12.1045695,21 11,21 C9.8954305,21 9,21.8954305 9,23 C9,24.1045695 9.8954305,25 11,25 Z" id="Oval" fill="#EDEDED"></path>
                <path d="M11,35 C12.1045695,35 13,34.1045695 13,33 C13,31.8954305 12.1045695,31 11,31 C9.8954305,31 9,31.8954305 9,33 C9,34.1045695 9.8954305,35 11,35 Z" id="Oval-Copy" fill="#EDEDED"></path>
                <path d="M11,45 C12.1045695,45 13,44.1045695 13,43 C13,41.8954305 12.1045695,41 11,41 C9.8954305,41 9,41.8954305 9,43 C9,44.1045695 9.8954305,45 11,45 Z" id="Oval-Copy-2" fill="#EDEDED"></path>
                <path d="M4.97999983,67.68 L16.6199998,67.68 L16.6199998,69.32 L4.97999983,69.32 L4.97999983,67.68 Z M9.11999983,57.68 C9.11999983,58.1333356 9.28666483,58.5199984 9.61999983,58.84 C9.95333483,59.1600016 10.3499975,59.32 10.8099998,59.32 C11.2700021,59.32 11.6633315,59.1600016 11.9899998,58.84 C12.3166681,58.5199984 12.4799998,58.1333356 12.4799998,57.68 C12.4799998,57.2266644 12.3133348,56.833335 11.9799998,56.5 C11.6466648,56.166665 11.2533354,56 10.7999998,56 C10.3466642,56 9.95333483,56.166665 9.61999983,56.5 C9.28666483,56.833335 9.11999983,57.2266644 9.11999983,57.68 Z M15.7999998,57.68 C15.7999998,58.3733368 15.6266682,59.1666622 15.2799998,60.06 C14.986665,60.8200038 14.5733358,61.6399956 14.0399998,62.52 C13.613331,63.2133368 13.1200026,63.9333296 12.5599998,64.68 C12.1599978,65.213336 11.7466686,65.7266642 11.3199998,66.22 L10.7999998,66.82 L10.2799998,66.22 C9.85333103,65.7266642 9.44000183,65.213336 9.03999983,64.68 C8.47999703,63.9333296 7.98666863,63.2133368 7.55999983,62.52 C7.02666383,61.6399956 6.61333463,60.8200038 6.31999983,60.06 C5.97333143,59.1666622 5.79999983,58.3733368 5.79999983,57.68 C5.79999983,56.7733288 6.02333093,55.9366705 6.46999983,55.17 C6.91666873,54.4033295 7.52332933,53.7966689 8.28999983,53.35 C9.05667033,52.9033311 9.89332863,52.68 10.7999998,52.68 C11.706671,52.68 12.5433293,52.9033311 13.3099998,53.35 C14.0766703,53.7966689 14.6833309,54.4033295 15.1299998,55.17 C15.5766687,55.9366705 15.7999998,56.7733288 15.7999998,57.68 Z" id="pin_drop---material" fill="#585858"></path>
                <path d="M13.17,7.7 C13.17,8.09600198 13.068001,8.46799826 12.864,8.816 C12.659999,9.16400174 12.3840017,9.43999898 12.036,9.644 C11.6879983,9.84800102 11.316002,9.95 10.92,9.95 C10.523998,9.95 10.1520017,9.84800102 9.804,9.644 C9.45599826,9.43999898 9.18000102,9.16400174 8.976,8.816 C8.77199898,8.46799826 8.67,8.09600198 8.67,7.7 C8.67,7.30399802 8.77199898,6.93200174 8.976,6.584 C9.18000102,6.23599826 9.45599826,5.96000102 9.804,5.756 C10.1520017,5.55199898 10.523998,5.45 10.92,5.45 C11.316002,5.45 11.6879983,5.55199898 12.036,5.756 C12.3840017,5.96000102 12.659999,6.23599826 12.864,6.584 C13.068001,6.93200174 13.17,7.30399802 13.17,7.7 Z M10.92,13.712 C12.0000054,13.712 13.0079953,13.4360028 13.944,12.884 C14.8560046,12.3559974 15.5759974,11.6360046 16.104,10.724 C16.6560028,9.78799532 16.932,8.7800054 16.932,7.7 C16.932,6.6199946 16.6560028,5.61200468 16.104,4.676 C15.5759974,3.76399544 14.8560046,3.04400264 13.944,2.516 C13.0079953,1.96399724 12.0000054,1.688 10.92,1.688 C9.8399946,1.688 8.83200468,1.96399724 7.896,2.516 C6.98399544,3.04400264 6.26400264,3.76399544 5.736,4.676 C5.18399724,5.61200468 4.908,6.6199946 4.908,7.7 C4.908,8.7800054 5.18399724,9.78799532 5.736,10.724 C6.26400264,11.6360046 6.98399544,12.3559974 7.896,12.884 C8.83200468,13.4360028 9.8399946,13.712 10.92,13.712 Z M10.92,0.212 C12.2880068,0.212 13.5539942,0.55399658 14.718,1.238 C15.8460056,1.88600324 16.7339968,2.77399436 17.382,3.902 C18.0660034,5.06600582 18.408,6.33199316 18.408,7.7 C18.408,9.06800684 18.0660034,10.3339942 17.382,11.498 C16.7339968,12.6260056 15.8460056,13.5139968 14.718,14.162 C13.5539942,14.8460034 12.2880068,15.188 10.92,15.188 C9.55199316,15.188 8.28600582,14.8460034 7.122,14.162 C5.99399436,13.5019967 5.10600324,12.6080056 4.458,11.48 C3.77399658,10.3159942 3.432,9.05600678 3.432,7.7 C3.432,6.34399322 3.77399658,5.08400582 4.458,3.92 C5.1180033,2.79199436 6.01199436,1.8980033 7.14,1.238 C8.30400582,0.55399658 9.56399322,0.212 10.92,0.212 Z" id="adjust---material" fill="#585858"></path>
            </g>
        </g>
    </g>
</svg>